<svg width="26" height="28" viewBox="0 0 26 28" fill="none" xmlns="http://www.w3.org/2000/svg">
<path d="M1 20V21H0L0 20H1ZM25.7071 19.2929C26.0976 19.6834 26.0976 20.3166 25.7071 20.7071L19.3431 27.0711C18.9526 27.4616 18.3195 27.4616 17.9289 27.0711C17.5384 26.6805 17.5384 26.0474 17.9289 25.6569L23.5858 20L17.9289 14.3431C17.5384 13.9526 17.5384 13.3195 17.9289 12.9289C18.3195 12.5384 18.9526 12.5384 19.3431 12.9289L25.7071 19.2929ZM2 0L2 20H0L0 0L2 0ZM1 19H25V21H1L1 19Z" fill="white"/>
</svg>
