<svg width="30" height="30" viewBox="0 0 30 30" fill="none" xmlns="http://www.w3.org/2000/svg">
<path d="M27 21V22.1197H28.1197V21H27ZM2.20828 20.2083C1.77102 20.6455 1.77102 21.3545 2.20828 21.7917L9.33378 28.9172C9.77103 29.3545 10.48 29.3545 10.9172 28.9172C11.3545 28.48 11.3545 27.771 10.9172 27.3338L4.58344 21L10.9172 14.6662C11.3545 14.229 11.3545 13.52 10.9172 13.0828C10.48 12.6455 9.77103 12.6455 9.33378 13.0828L2.20828 20.2083ZM25.8803 1V21H28.1197V1L25.8803 1ZM27 19.8803H3V22.1197H27V19.8803Z" fill="white"/>
</svg>
